<mxfile host="app.diagrams.net" modified="2021-09-08T01:29:05.840Z" agent="5.0 (Windows NT 6.1; Win64; x64) AppleWebKit/537.36 (KHTML, like Gecko) Chrome/92.0.4515.131 Safari/537.36 OPR/78.0.4093.186" etag="yovymlYML4ys9q07myrs" version="15.1.1" type="github">
  <diagram id="kgpKYQtTHZ0yAKxKKP6v" name="Page-1">
    <mxGraphModel dx="821" dy="1552" grid="1" gridSize="10" guides="1" tooltips="1" connect="1" arrows="1" fold="1" page="1" pageScale="1" pageWidth="850" pageHeight="1100" math="0" shadow="0">
      <root>
        <mxCell id="0" />
        <mxCell id="1" parent="0" />
        <mxCell id="zMxPsv51Ioh1ktsBvb2w-1" value="Início" style="ellipse;whiteSpace=wrap;html=1;" vertex="1" parent="1">
          <mxGeometry x="10" y="-450" width="120" height="80" as="geometry" />
        </mxCell>
        <mxCell id="zMxPsv51Ioh1ktsBvb2w-2" value="" style="endArrow=classic;html=1;" edge="1" parent="1">
          <mxGeometry width="50" height="50" relative="1" as="geometry">
            <mxPoint x="69.5" y="-370" as="sourcePoint" />
            <mxPoint x="70" y="-330" as="targetPoint" />
          </mxGeometry>
        </mxCell>
        <mxCell id="zMxPsv51Ioh1ktsBvb2w-3" value="Informar a data do Evento:" style="rounded=0;whiteSpace=wrap;html=1;" vertex="1" parent="1">
          <mxGeometry x="10" y="-330" width="120" height="60" as="geometry" />
        </mxCell>
        <mxCell id="zMxPsv51Ioh1ktsBvb2w-5" value="" style="endArrow=classic;html=1;" edge="1" parent="1">
          <mxGeometry width="50" height="50" relative="1" as="geometry">
            <mxPoint x="69.5" y="-270" as="sourcePoint" />
            <mxPoint x="70" y="-230" as="targetPoint" />
            <Array as="points">
              <mxPoint x="70" y="-270" />
            </Array>
          </mxGeometry>
        </mxCell>
        <mxCell id="zMxPsv51Ioh1ktsBvb2w-6" value="Data do Evento:" style="rounded=0;whiteSpace=wrap;html=1;" vertex="1" parent="1">
          <mxGeometry x="10" y="-230" width="120" height="60" as="geometry" />
        </mxCell>
        <mxCell id="zMxPsv51Ioh1ktsBvb2w-7" value="" style="endArrow=classic;html=1;" edge="1" parent="1">
          <mxGeometry width="50" height="50" relative="1" as="geometry">
            <mxPoint x="69.5" y="-170" as="sourcePoint" />
            <mxPoint x="70" y="-130" as="targetPoint" />
          </mxGeometry>
        </mxCell>
        <mxCell id="zMxPsv51Ioh1ktsBvb2w-8" value="se (data do evento &amp;lt; data atual) escreva &quot;Data Inválida&quot;;" style="ellipse;whiteSpace=wrap;html=1;" vertex="1" parent="1">
          <mxGeometry x="10" y="-130" width="120" height="80" as="geometry" />
        </mxCell>
        <mxCell id="zMxPsv51Ioh1ktsBvb2w-9" value="" style="endArrow=classic;html=1;" edge="1" parent="1">
          <mxGeometry width="50" height="50" relative="1" as="geometry">
            <mxPoint x="70" y="-50" as="sourcePoint" />
            <mxPoint x="70.5" y="-10" as="targetPoint" />
          </mxGeometry>
        </mxCell>
        <mxCell id="zMxPsv51Ioh1ktsBvb2w-10" value="A data do evento é menor que a atual?" style="rounded=0;whiteSpace=wrap;html=1;" vertex="1" parent="1">
          <mxGeometry x="10" y="-10" width="120" height="60" as="geometry" />
        </mxCell>
        <mxCell id="zMxPsv51Ioh1ktsBvb2w-11" value="" style="endArrow=classic;html=1;" edge="1" parent="1">
          <mxGeometry width="50" height="50" relative="1" as="geometry">
            <mxPoint x="140" y="19.5" as="sourcePoint" />
            <mxPoint x="220" y="19.5" as="targetPoint" />
            <Array as="points">
              <mxPoint x="130" y="19.5" />
              <mxPoint x="160" y="20" />
            </Array>
          </mxGeometry>
        </mxCell>
        <mxCell id="zMxPsv51Ioh1ktsBvb2w-12" value="Sim." style="text;html=1;strokeColor=none;fillColor=none;align=center;verticalAlign=middle;whiteSpace=wrap;rounded=0;" vertex="1" parent="1">
          <mxGeometry x="150" width="40" height="20" as="geometry" />
        </mxCell>
        <mxCell id="zMxPsv51Ioh1ktsBvb2w-13" value="Data Inválida." style="rounded=0;whiteSpace=wrap;html=1;" vertex="1" parent="1">
          <mxGeometry x="220" y="-10" width="70" height="60" as="geometry" />
        </mxCell>
        <mxCell id="zMxPsv51Ioh1ktsBvb2w-14" value="" style="endArrow=classic;html=1;" edge="1" parent="1">
          <mxGeometry width="50" height="50" relative="1" as="geometry">
            <mxPoint x="69.5" y="50" as="sourcePoint" />
            <mxPoint x="70" y="90" as="targetPoint" />
          </mxGeometry>
        </mxCell>
        <mxCell id="zMxPsv51Ioh1ktsBvb2w-15" value="Não." style="text;html=1;strokeColor=none;fillColor=none;align=center;verticalAlign=middle;whiteSpace=wrap;rounded=0;" vertex="1" parent="1">
          <mxGeometry x="70" y="60" width="40" height="20" as="geometry" />
        </mxCell>
        <mxCell id="zMxPsv51Ioh1ktsBvb2w-16" value="Informe sua Idade." style="ellipse;whiteSpace=wrap;html=1;" vertex="1" parent="1">
          <mxGeometry x="25" y="90" width="90" height="60" as="geometry" />
        </mxCell>
        <mxCell id="zMxPsv51Ioh1ktsBvb2w-17" value="" style="endArrow=classic;html=1;" edge="1" parent="1">
          <mxGeometry width="50" height="50" relative="1" as="geometry">
            <mxPoint x="69" y="150" as="sourcePoint" />
            <mxPoint x="69.5" y="190" as="targetPoint" />
          </mxGeometry>
        </mxCell>
        <mxCell id="zMxPsv51Ioh1ktsBvb2w-18" value="se(idade &amp;lt; 18) escreva &quot;Não é permitido o cadastro de menores de 18 anos." style="ellipse;whiteSpace=wrap;html=1;" vertex="1" parent="1">
          <mxGeometry x="10" y="190" width="120" height="80" as="geometry" />
        </mxCell>
        <mxCell id="zMxPsv51Ioh1ktsBvb2w-19" value="" style="endArrow=classic;html=1;" edge="1" parent="1">
          <mxGeometry width="50" height="50" relative="1" as="geometry">
            <mxPoint x="70" y="270" as="sourcePoint" />
            <mxPoint x="70.5" y="310" as="targetPoint" />
          </mxGeometry>
        </mxCell>
        <mxCell id="zMxPsv51Ioh1ktsBvb2w-20" value="A idade é menor que 18 anos?" style="rounded=0;whiteSpace=wrap;html=1;" vertex="1" parent="1">
          <mxGeometry x="25" y="310" width="90" height="60" as="geometry" />
        </mxCell>
        <mxCell id="zMxPsv51Ioh1ktsBvb2w-21" value="" style="endArrow=classic;html=1;" edge="1" parent="1">
          <mxGeometry width="50" height="50" relative="1" as="geometry">
            <mxPoint x="70" y="370" as="sourcePoint" />
            <mxPoint x="70.5" y="410" as="targetPoint" />
          </mxGeometry>
        </mxCell>
        <mxCell id="zMxPsv51Ioh1ktsBvb2w-22" value="Sim" style="text;html=1;strokeColor=none;fillColor=none;align=center;verticalAlign=middle;whiteSpace=wrap;rounded=0;" vertex="1" parent="1">
          <mxGeometry x="30" y="380" width="40" height="20" as="geometry" />
        </mxCell>
        <mxCell id="zMxPsv51Ioh1ktsBvb2w-23" value="Proibido o cadastro de menores de 18 anos." style="ellipse;whiteSpace=wrap;html=1;" vertex="1" parent="1">
          <mxGeometry x="20" y="410" width="100" height="70" as="geometry" />
        </mxCell>
        <mxCell id="zMxPsv51Ioh1ktsBvb2w-24" value="" style="endArrow=classic;html=1;" edge="1" parent="1">
          <mxGeometry width="50" height="50" relative="1" as="geometry">
            <mxPoint x="115" y="339.5" as="sourcePoint" />
            <mxPoint x="165" y="339.5" as="targetPoint" />
          </mxGeometry>
        </mxCell>
        <mxCell id="zMxPsv51Ioh1ktsBvb2w-25" value="Não." style="text;html=1;strokeColor=none;fillColor=none;align=center;verticalAlign=middle;whiteSpace=wrap;rounded=0;" vertex="1" parent="1">
          <mxGeometry x="115" y="320" width="40" height="20" as="geometry" />
        </mxCell>
        <mxCell id="zMxPsv51Ioh1ktsBvb2w-29" value="" style="edgeStyle=orthogonalEdgeStyle;rounded=0;orthogonalLoop=1;jettySize=auto;html=1;" edge="1" parent="1" source="zMxPsv51Ioh1ktsBvb2w-26" target="zMxPsv51Ioh1ktsBvb2w-28">
          <mxGeometry relative="1" as="geometry" />
        </mxCell>
        <mxCell id="zMxPsv51Ioh1ktsBvb2w-26" value="Informe a lista de participantes." style="rounded=1;whiteSpace=wrap;html=1;" vertex="1" parent="1">
          <mxGeometry x="170" y="310" width="120" height="60" as="geometry" />
        </mxCell>
        <mxCell id="zMxPsv51Ioh1ktsBvb2w-27" value="" style="endArrow=classic;html=1;" edge="1" parent="1">
          <mxGeometry width="50" height="50" relative="1" as="geometry">
            <mxPoint x="290" y="340" as="sourcePoint" />
            <mxPoint x="340" y="340" as="targetPoint" />
          </mxGeometry>
        </mxCell>
        <mxCell id="zMxPsv51Ioh1ktsBvb2w-28" value="Informe a lista dos eventos." style="rounded=1;whiteSpace=wrap;html=1;" vertex="1" parent="1">
          <mxGeometry x="340" y="310" width="120" height="60" as="geometry" />
        </mxCell>
        <mxCell id="zMxPsv51Ioh1ktsBvb2w-30" value="" style="endArrow=classic;html=1;" edge="1" parent="1">
          <mxGeometry width="50" height="50" relative="1" as="geometry">
            <mxPoint x="399.5" y="310" as="sourcePoint" />
            <mxPoint x="399.5" y="270" as="targetPoint" />
          </mxGeometry>
        </mxCell>
        <mxCell id="zMxPsv51Ioh1ktsBvb2w-31" value="enquanto(lista de participante &amp;lt; 100) escreva (&quot;Cadastrar participantes&quot;)&amp;nbsp;" style="rounded=0;whiteSpace=wrap;html=1;" vertex="1" parent="1">
          <mxGeometry x="340" y="210" width="120" height="60" as="geometry" />
        </mxCell>
        <mxCell id="zMxPsv51Ioh1ktsBvb2w-32" value="" style="endArrow=classic;html=1;" edge="1" parent="1">
          <mxGeometry width="50" height="50" relative="1" as="geometry">
            <mxPoint x="399.5" y="210" as="sourcePoint" />
            <mxPoint x="400" y="150" as="targetPoint" />
          </mxGeometry>
        </mxCell>
        <mxCell id="zMxPsv51Ioh1ktsBvb2w-33" value="se (lista de participantes = 100) entao escreva (&quot;limite de participantes atingido.&quot;)" style="rounded=0;whiteSpace=wrap;html=1;" vertex="1" parent="1">
          <mxGeometry x="340" y="80" width="120" height="70" as="geometry" />
        </mxCell>
        <mxCell id="zMxPsv51Ioh1ktsBvb2w-35" value="" style="endArrow=classic;html=1;" edge="1" parent="1">
          <mxGeometry width="50" height="50" relative="1" as="geometry">
            <mxPoint x="399.5" y="80" as="sourcePoint" />
            <mxPoint x="399.5" y="40" as="targetPoint" />
          </mxGeometry>
        </mxCell>
        <mxCell id="zMxPsv51Ioh1ktsBvb2w-36" value="Cadastro realizado." style="ellipse;whiteSpace=wrap;html=1;" vertex="1" parent="1">
          <mxGeometry x="360" y="-20" width="80" height="60" as="geometry" />
        </mxCell>
        <mxCell id="zMxPsv51Ioh1ktsBvb2w-37" value="" style="endArrow=classic;html=1;" edge="1" parent="1">
          <mxGeometry width="50" height="50" relative="1" as="geometry">
            <mxPoint x="399.5" y="-20" as="sourcePoint" />
            <mxPoint x="399.5" y="-60" as="targetPoint" />
          </mxGeometry>
        </mxCell>
        <mxCell id="zMxPsv51Ioh1ktsBvb2w-38" value="Fim." style="ellipse;whiteSpace=wrap;html=1;" vertex="1" parent="1">
          <mxGeometry x="365" y="-115" width="70" height="50" as="geometry" />
        </mxCell>
      </root>
    </mxGraphModel>
  </diagram>
</mxfile>
